<svg width="24" height="24" viewBox="0 0 24 24" fill="none" xmlns="http://www.w3.org/2000/svg">
<path fill-rule="evenodd" clip-rule="evenodd" d="M11.7911 0C13.3431 0 14.6818 1.59733 15.5636 4.19289C15.208 4.29156 14.8436 4.40089 14.4764 4.52356C13.744 2.376 12.7387 1.11244 11.7911 1.11244C10.7231 1.11244 9.584 2.71511 8.84222 5.37867C9.132 5.47156 9.42445 5.56978 9.72311 5.67911C10.4266 5.93735 11.1189 6.22501 11.7982 6.54133L11.9196 6.48489C12.4164 6.25837 12.9199 6.04672 13.4293 5.85022C14.7653 5.33911 16.056 4.97156 17.2373 4.77778C19.7818 4.35822 21.5707 4.792 22.2729 6C22.9769 7.208 22.4622 8.96089 20.824 10.9351C20.7289 11.048 20.6329 11.1622 20.532 11.2751C20.2803 10.9984 20.0198 10.7296 19.7511 10.4693C21.1973 8.80711 21.7662 7.35378 21.3018 6.55644C20.8618 5.80133 19.4129 5.54711 17.4218 5.87422C16.9773 5.94903 16.5362 6.04334 16.1 6.15689C16.1644 6.45244 16.2253 6.75422 16.2787 7.06667C16.4013 7.76578 16.4964 8.50578 16.564 9.27644C16.9096 9.51617 17.2495 9.76394 17.5836 10.0196C18.8693 11.0062 19.9738 12.0413 20.8236 13.0649C22.4622 15.0391 22.9769 16.792 22.2729 18C21.7453 18.9076 20.604 19.3778 18.9898 19.3778C18.456 19.3778 17.8707 19.3271 17.2373 19.2222C17.0738 19.1956 16.9071 19.1649 16.7387 19.1316C16.8396 18.7867 16.9329 18.4258 17.0178 18.0524C17.1538 18.0791 17.2889 18.1031 17.4218 18.1258C19.4116 18.4529 20.8618 18.1987 21.3018 17.4436C21.8351 16.5267 21.0018 14.7427 19.0409 12.7702C18.8421 12.9499 18.6402 13.1261 18.4351 13.2987C18.404 13.324 18.3724 13.3511 18.3418 13.3747C17.7676 13.8503 17.1735 14.3015 16.5613 14.7271C16.5322 15.0706 16.4967 15.4134 16.4547 15.7556C15.8431 20.6444 14.0409 24 11.7911 24C10.2427 24 8.90533 22.4076 8.02356 19.8182C8.38919 19.719 8.75172 19.6087 9.11067 19.4876C9.84311 21.6284 10.8453 22.8876 11.7911 22.8876C12.8591 22.8876 14.0013 21.2796 14.7444 18.6089C14.4482 18.516 14.1542 18.4163 13.8627 18.3098C13.1626 18.0554 12.4736 17.7718 11.7973 17.4596L11.7529 17.4804C11.36 17.6613 10.9733 17.8298 10.592 17.9858C10.5324 18.0093 10.4751 18.0333 10.4173 18.0542C8.22089 18.9316 6.21511 19.3858 4.62 19.3858C3.03111 19.3858 1.85289 18.9347 1.308 18C0.528444 16.6618 1.26622 14.7022 3.11156 12.6356L3.89556 13.456C2.40267 15.1502 1.80978 16.6347 2.28089 17.4436C2.81422 18.36 4.78356 18.5369 7.48089 17.8427C7.41564 17.5414 7.35666 17.2388 7.304 16.9351C7.17828 16.2043 7.08338 15.4686 7.01956 14.7298C6.67501 14.4917 6.33568 14.2461 6.00178 13.9933C2.87556 11.6089 1 9.07689 1 7.192C1 6.75644 1.10089 6.35644 1.308 6C2.08356 4.66978 4.14356 4.31822 6.84844 4.85556C6.74622 5.20533 6.65111 5.57111 6.56622 5.94889C4.34267 5.51333 2.75067 5.74711 2.28089 6.55644C1.74756 7.472 2.57822 9.25244 4.53333 11.2218C4.784 10.9964 5.04444 10.7729 5.31733 10.5507C5.86801 10.1009 6.43631 9.67316 7.02089 9.26845C7.052 8.91867 7.08622 8.57289 7.12889 8.23778C7.74133 3.35333 9.54356 0 11.7911 0ZM15.3422 15.5333C15.0706 15.7042 14.7965 15.871 14.52 16.0338C14.1001 16.2796 13.6745 16.5155 13.2436 16.7413C13.1951 16.7671 13.1467 16.7907 13.0982 16.8164C13.7251 17.08 14.3628 17.3168 15.0098 17.5262C15.0756 17.2218 15.1364 16.9076 15.192 16.5822C15.2489 16.2444 15.2973 15.892 15.3422 15.5333ZM8.23644 15.5316C8.28356 15.9084 8.33778 16.2747 8.39867 16.6284C8.452 16.9378 8.51111 17.2351 8.57422 17.5249C8.75556 17.4671 8.93867 17.4058 9.12533 17.3404C9.18133 17.3213 9.23867 17.3004 9.29511 17.28C9.69167 17.139 10.084 16.9863 10.4716 16.8222L10.4827 16.8178C10.0998 16.6186 9.72092 16.4119 9.34622 16.1978C9.32711 16.1867 9.30622 16.1756 9.28711 16.1627C8.93295 15.9589 8.58267 15.7485 8.23644 15.5316ZM11.792 7.77378C11.1519 8.08131 10.5234 8.4122 9.90756 8.76578C9.29207 9.11792 8.68917 9.49163 8.1 9.88622C8.04862 10.5896 8.02312 11.2947 8.02356 12C8.02356 12.7316 8.05067 13.4356 8.09911 14.1129C8.42667 14.3324 8.76356 14.5502 9.11556 14.764C9.98268 15.2959 10.8759 15.7839 11.792 16.2262L11.9129 16.1689C12.3404 15.96 12.7628 15.7407 13.1796 15.5111C13.9676 15.0801 14.7359 14.614 15.4822 14.1142C15.5335 13.4107 15.559 12.7054 15.5587 12C15.5587 11.2689 15.532 10.5644 15.4831 9.88756C14.8942 9.49196 14.2911 9.11779 13.6751 8.76578C13.0591 8.41309 12.4309 8.08222 11.7916 7.77378H11.792ZM11.7911 10.5693C12.588 10.5693 13.2342 11.2098 13.2342 12C13.2342 12.7902 12.588 13.4307 11.7911 13.4307C10.9942 13.4307 10.3484 12.7902 10.3484 12C10.3484 11.2098 10.9942 10.5693 11.7911 10.5693ZM16.656 10.7182C16.6724 11.1382 16.6809 11.5658 16.6809 12C16.6809 12.1049 16.6809 12.2098 16.6796 12.3147C16.676 12.6436 16.6662 12.9662 16.6533 13.2867C16.9422 13.0698 17.2196 12.8529 17.4844 12.6356L17.5822 12.5564C17.8062 12.3698 18.0209 12.1849 18.2271 12C17.7226 11.5498 17.1983 11.1221 16.656 10.7182ZM6.92889 10.7151C6.66933 10.9098 6.41822 11.1044 6.17822 11.2991C5.88933 11.532 5.61511 11.7658 5.35422 12.0004C5.54356 12.1698 5.73956 12.34 5.94444 12.5102C6.25378 12.768 6.58311 13.0253 6.92667 13.2822C6.90986 12.855 6.90142 12.4275 6.90133 12C6.90133 11.8951 6.90133 11.7902 6.90444 11.6867C6.90667 11.3587 6.91644 11.0356 6.92889 10.7151ZM15.008 6.47422C14.3964 6.6711 13.7933 6.89367 13.2004 7.14133L13.1027 7.18267C13.4782 7.37867 13.8564 7.58533 14.236 7.80222C14.2551 7.81333 14.276 7.82444 14.2956 7.83733C14.6538 8.04178 15.0022 8.25422 15.3458 8.46978C15.3002 8.10265 15.2461 7.73662 15.1836 7.372C15.1311 7.07159 15.0726 6.77227 15.008 6.47422ZM8.57333 6.47422C8.4318 7.1322 8.32043 7.7963 8.23956 8.46444C8.58178 8.25022 8.93378 8.03867 9.29511 7.83111L9.34622 7.80222C9.72148 7.58817 10.101 7.38161 10.4844 7.18267C10.1497 7.04215 9.8118 6.90908 9.47111 6.78356C9.17436 6.67331 8.87502 6.57016 8.57333 6.47422Z" fill="url(#paint0_linear_1658_1153)"/>
<defs>
<linearGradient id="paint0_linear_1658_1153" x1="4.08468" y1="12" x2="20.5209" y2="12.6868" gradientUnits="userSpaceOnUse">
<stop stop-color="#7543E3"/>
<stop offset="1" stop-color="#582ACB"/>
</linearGradient>
</defs>
</svg>
